<svg aria-hidden="true" style="position:absolute;width:0;height:0;overflow:hidden" xmlns="http://www.w3.org/2000/svg">
  <defs>
   <symbol id="icon-twitter" viewBox="0 0 38 32">
      <path stroke-linejoin="round" stroke-linecap="round" stroke-width="2.4" d="M36.8 1.6a17.446 17.446 0 0 1-5.024 2.448 7.172 7.172 0 0 0-7.965-1.993 7.172 7.172 0 0 0-4.612 6.793v1.6c-2.812.073-5.598-.551-8.11-1.815s-5.473-4.276-7.09-6.578c0 0-5.6 15.545 8.8 21.945a18.625 18.625 0 0 1-11.2 3.2c14.4 8 32 0 32-18.4a7.131 7.131 0 0 0-.128-1.328A12.354 12.354 0 0 0 36.799 1.6z"/>
    </symbol>
    <symbol id="icon-Coin" viewBox="0 0 32 32">
      <path d="M16 2.667c-7.333 0-13.333 6-13.333 13.333s6 13.333 13.333 13.333 13.333-6 13.333-13.333S23.333 2.667 16 2.667zm0 24c-5.867 0-10.667-4.8-10.667-10.667S10.133 5.333 16 5.333 26.667 10.133 26.667 16 21.867 26.667 16 26.667z"/>
      <path d="M17.733 14.667h-3.467c-.667 0-1.2-.533-1.2-1.2s.533-1.2 1.2-1.2h4.933c.8 0 1.333-.533 1.333-1.333s-.533-1.333-1.333-1.333h-1.867v-1.2c0-.8-.533-1.333-1.333-1.333s-1.333.533-1.333 1.333v1.2h-.4c-2.133 0-3.867 1.733-3.867 3.867s1.733 3.867 3.867 3.867h3.333c.667 0 1.2.533 1.2 1.2s-.533 1.2-1.2 1.2h-4.933c-.8 0-1.333.533-1.333 1.333s.533 1.333 1.333 1.333h2v1.2c0 .8.533 1.333 1.333 1.333s1.333-.533 1.333-1.333v-1.2h.4c2.133 0 3.867-1.733 3.867-3.867s-1.733-3.867-3.867-3.867z"/>
    </symbol>
    <symbol id="icon-flchocolate-bar" viewBox="0 0 32 32">
      <path d="m13.822 2.413 7.527 7.536.08-.08a.856.856 0 0 1 1.184-.013l.873.873c.305.305.315.77.083 1.094l-.004.007-.143.192 6.16 6.16c.55.55.55 1.43 0 1.98l-9.43 9.43c-.55.55-1.43.55-1.98 0l-4.447-4.447a.853.853 0 0 1-.612.317.842.842 0 0 1-.644-.246l-2.6-2.6a.856.856 0 0 1-.013-1.184l.006-.007.077-.076-7.527-7.527c-.55-.55-.55-1.43 0-1.98l9.43-9.43c.55-.55 1.43-.55 1.98 0v.001zm6.582 8.48-1.756-1.755a.59.59 0 0 0-.85 0l-3.58 3.58a.621.621 0 0 0-.179.43.602.602 0 0 0 .179.43l1.749 1.749.61-.61-1.565-1.565 3.21-3.22 1.569 1.574.613-.613zm-5.076 5.072-1.754-1.754a.59.59 0 0 0-.85 0l-3.59 3.59c-.24.23-.24.61 0 .85l1.752 1.752.616-.616-1.57-1.564 3.22-3.21 1.564 1.563.612-.611zM8.822 8.193l3.58 3.58c.24.24.62.24.85-.01l3.58-3.58a.57.57 0 0 0 .18-.42h.01c0-.15-.06-.31-.18-.43l-3.58-3.58a.602.602 0 0 0-.86 0l-3.58 3.59c-.24.23-.24.61 0 .85zm-5.07 5.07 3.58 3.58c.24.24.62.24.85 0l3.58-3.58a.578.578 0 0 0 .18-.43h.01c0-.16-.06-.31-.18-.43l-3.58-3.58a.59.59 0 0 0-.85 0l-3.59 3.59c-.24.23-.24.61 0 .85zm6.933 8.754 2.362 2.363 9.636-13.04-.655-.655-11.343 11.332z"/>
      <path d="m13.822 2.413 7.527 7.536.08-.08a.856.856 0 0 1 1.184-.013l.873.873c.305.305.315.77.083 1.094l-.004.007-.143.192 6.16 6.16c.55.55.55 1.43 0 1.98l-9.43 9.43c-.55.55-1.43.55-1.98 0l-4.447-4.447a.853.853 0 0 1-.612.317.842.842 0 0 1-.644-.246l-2.6-2.6a.856.856 0 0 1-.013-1.184l.006-.007.077-.076-7.527-7.527c-.55-.55-.55-1.43 0-1.98l9.43-9.43c.55-.55 1.43-.55 1.98 0v.001zm6.582 8.48-1.756-1.755a.59.59 0 0 0-.85 0l-3.58 3.58a.621.621 0 0 0-.179.43.602.602 0 0 0 .179.43l1.749 1.749.61-.61-1.565-1.565 3.21-3.22 1.569 1.574.613-.613zm-5.076 5.072-1.754-1.754a.59.59 0 0 0-.85 0l-3.59 3.59c-.24.23-.24.61 0 .85l1.752 1.752.616-.616-1.57-1.564 3.22-3.21 1.564 1.563.612-.611zM8.822 8.193l3.58 3.58c.24.24.62.24.85-.01l3.58-3.58a.57.57 0 0 0 .18-.42h.01c0-.15-.06-.31-.18-.43l-3.58-3.58a.602.602 0 0 0-.86 0l-3.58 3.59c-.24.23-.24.61 0 .85zm-5.07 5.07 3.58 3.58c.24.24.62.24.85 0l3.58-3.58a.578.578 0 0 0 .18-.43h.01c0-.16-.06-.31-.18-.43l-3.58-3.58a.59.59 0 0 0-.85 0l-3.59 3.59c-.24.23-.24.61 0 .85zm6.933 8.754 2.362 2.363 9.636-13.04-.655-.655-11.343 11.332z"/>
    </symbol>
    <symbol id="icon-utensil-spoon" viewBox="0 0 32 32">
      <path d="M15.451 14.106a5.154 5.154 0 0 1-1.177-3.282c0-4.324 5.181-8.642 10.362-8.642a5.183 5.183 0 0 1 5.181 5.182c0 5.182-4.318 10.364-8.646 10.364a5.151 5.151 0 0 1-3.281-1.177L5.132 29.312a1.73 1.73 0 0 1-2.445-2.445l12.764-12.761z"/>
    </symbol>
    <symbol id="icon-menu" viewBox="0 0 32 32">
      <path stroke-linejoin="round" stroke-linecap="round" stroke-width="2.5" d="M4 16h24M4 8h24M4 24h24"/>
    </symbol>
    <symbol id="icon-arrow-right" viewBox="0 0 48 32">
      <path stroke-linejoin="round" stroke-linecap="round" stroke-width="4" d="M3.429 16h41.143m0 0L34.286 5.714M44.572 16 34.286 26.286"/>
    </symbol>
     <symbol id="icon-arrow-down" viewBox="0 0 53 32">
      <path d="M29.19 20.978a3.558 3.558 0 0 1-5.048 0L7.858 4.658A3.558 3.558 0 1 0 2.81 9.672l16.32 16.32a10.668 10.668 0 0 0 15.076 0l16.32-16.32a3.555 3.555 0 0 0 .767-3.854 3.562 3.562 0 0 0-1.924-1.937 3.563 3.563 0 0 0-2.734 0c-.433.18-.827.445-1.157.778l-16.284 16.32z"/>
    </symbol>
   <symbol id="icon-instagramm" viewBox="0 0 32 32">
      <path d="M8.727 2.545a6.182 6.182 0 0 0-6.182 6.182v14.545a6.182 6.182 0 0 0 6.182 6.182h14.545a6.182 6.182 0 0 0 6.182-6.182V8.727a6.182 6.182 0 0 0-6.182-6.182H8.727zM.364 8.727A8.364 8.364 0 0 1 8.728.363h14.545a8.364 8.364 0 0 1 8.364 8.364v14.545a8.364 8.364 0 0 1-8.364 8.364H8.728a8.364 8.364 0 0 1-8.364-8.364V8.727z"/>
      <path d="M16.756 11.261a4.727 4.727 0 1 0-1.39 9.35 4.727 4.727 0 0 0 1.391-9.349zm-3.875-1.457a6.914 6.914 0 0 1 8.068 1.247 6.908 6.908 0 1 1-9.771 9.771 6.905 6.905 0 0 1-1.286-7.992 6.904 6.904 0 0 1 2.989-3.026zM22.909 8A1.09 1.09 0 0 1 24 6.909h.015a1.091 1.091 0 0 1 0 2.182H24A1.091 1.091 0 0 1 22.909 8z"/>
    </symbol>
     <symbol id="icon-facebook" viewBox="0 0 19 32">
      <path stroke-linejoin="round" stroke-linecap="round" stroke-width="2.182" d="M17.455 1.455h-4.364a7.273 7.273 0 0 0-7.273 7.273v4.364H1.454v5.818h4.364v11.636h5.818V18.91H16l1.455-5.818h-5.818V8.728a1.455 1.455 0 0 1 1.455-1.455h4.364V1.455z"/>
    <symbol id="icon-menu" viewBox="0 0 32 32">
      <path d="M0 2h32v4H0zm0 6h32v4H0zm0 6h32v4H0zm0 6h32v4H0zm0 6h32v4H0z"/>
    </symbol>
  </defs>
</svg>
